<svg width="69" height="137" viewBox="0 0 69 137" fill="none" xmlns="http://www.w3.org/2000/svg">
<path fill-rule="evenodd" clip-rule="evenodd" d="M4.88117 0.164551H-4.88116V43.3888L-21.0732 3.31196L-30.1246 6.96895L-13.513 48.084L-44.869 16.728L-51.7719 23.631L-21.7186 53.6842L-60.6654 36.668L-64.5739 45.6137L-23.3636 63.6188H-68.3354V73.3812H-23.3636L-64.5739 91.3862L-60.6654 100.332L-21.7187 83.3158L-51.7719 113.369L-44.869 120.272L-13.513 88.9159L-30.1246 130.031L-21.0732 133.688L-4.88116 93.6112V136.835H4.88117V93.6112L21.0732 133.688L30.1243 130.031L13.5133 88.9159L44.869 120.272L51.7716 113.369L21.7183 83.3158L60.6654 100.332L64.5735 91.3862L23.3639 73.3812H68.3354V63.6188H23.3632L64.5735 45.6137L60.6654 36.668L21.7183 53.6842L51.7716 23.6309L44.869 16.728L13.5133 48.0839L30.1243 6.96895L21.0732 3.31196L4.88117 43.3888V0.164551Z" fill="#0b854a"/>
</svg>
