<svg xmlns="http://www.w3.org/2000/svg" enable-background="new 0 0 24 24" viewBox="0 0 24 24" id="stripe"><polygon fill="#646FDE" points="11.314 8.732 12.987 8.372 12.987 7 11.314 7.36"></polygon><polygon fill="#646FDE" points="11.32 15.048 12.992 15.048 12.992 9.243 11.32 9.243 11.32 15.048"></polygon><path fill="#646FDE" d="M4.226 13.354c0-2.004-2.547-1.644-2.547-2.402l.001.002c0-.262.218-.364.566-.368.506 0 1.151.155 1.657.432V9.434c-.551-.22-1.102-.307-1.653-.307C.901 9.127 0 9.839 0 11.029c0 1.864 2.532 1.562 2.532 2.365 0 .311-.267.413-.639.413-.551 0-1.264-.231-1.822-.539v1.516c.618.268 1.245.382 1.819.382C3.273 15.166 4.226 14.568 4.226 13.354L4.226 13.354zM16.468 9.129c-.652 0-1.072.311-1.305.527l-.087-.418H13.61V17l1.665-.356.004-1.903c.24.178.596.424 1.178.424 1.194 0 2.281-.879 2.281-3.016C18.741 10.194 17.639 9.129 16.468 9.129L16.468 9.129zM16.071 13.771L16.071 13.771c-.39 0-.623-.143-.784-.318l-.011-2.502c.172-.193.412-.333.795-.333.608 0 1.027.69 1.027 1.569C17.102 13.092 16.69 13.771 16.071 13.771L16.071 13.771zM21.593 9.129c-1.583 0-2.548 1.36-2.548 3.074 0 2.027 1.137 2.963 2.757 2.963.796 0 1.392-.182 1.846-.436v-1.266c-.454.231-.975.371-1.635.371-.65 0-1.219-.231-1.294-1.019h3.259c.008-.088.022-.44.022-.602H24C24 10.49 23.175 9.129 21.593 9.129L21.593 9.129zM20.703 11.577c0-.758.462-1.076.878-1.076.409 0 .844.318.844 1.076H20.703L20.703 11.577zM7.452 10.675V9.243H6.188L6.184 7.783 4.559 8.132l-.008 5.396c0 .997.743 1.641 1.73 1.641.548 0 .949-.103 1.171-.224v-1.28c-.214.087-1.265.397-1.265-.595v-2.395H7.452L7.452 10.675zM10.917 10.789V9.243c-.225-.08-1.001-.227-1.391.497L9.425 9.243h-1.44v5.805h1.661v-3.907C10.04 10.619 10.704 10.721 10.917 10.789L10.917 10.789z"></path><polygon fill="#5761C1" points="12.992 12 11.32 12 11.32 15.048 12.992 15.048 12.992 12"></polygon><path fill="#5761C1" d="M3.553 12H.331c.686.813 2.201.772 2.201 1.393 0 .311-.267.413-.639.413-.551 0-1.264-.231-1.822-.539v1.516c.618.268 1.245.382 1.819.382 1.383 0 2.337-.599 2.337-1.812C4.226 12.679 3.937 12.272 3.553 12L3.553 12zM18.735 12h-1.643c.004.061.006.123.006.186.004.906-.409 1.584-1.027 1.584v0c-.39 0-.623-.144-.784-.318L15.281 12h-1.67v5l1.665-.356.004-1.903c.24.178.596.424 1.178.424 1.194 0 2.281-.879 2.281-3.016C18.738 12.099 18.737 12.049 18.735 12L18.735 12zM23.995 12h-4.946c-.003.067-.005.135-.005.203 0 2.027 1.137 2.963 2.757 2.963.796 0 1.392-.182 1.846-.436v-1.266c-.454.231-.975.371-1.635.371-.65 0-1.219-.231-1.294-1.019h3.259c.008-.088.022-.44.022-.602H24C24 12.142 23.998 12.071 23.995 12L23.995 12zM6.188 12H4.554l-.002 1.528c0 .997.743 1.641 1.73 1.641.548 0 .949-.103 1.171-.224v-1.28c-.091.037-.335.115-.584.115-.335 0-.681-.141-.681-.71V12L6.188 12z"></path><polygon fill="#5761C1" points="9.645 12 7.985 12 7.985 15.048 9.645 15.048 9.645 12"></polygon></svg>