<svg xmlns="http://www.w3.org/2000/svg" viewBox="0 0 100 100" preserveAspectRatio="xMidYMid" width="164" height="164" style="shape-rendering: auto; display: block; background: transparent;" xmlns:xlink="http://www.w3.org/1999/xlink"><g><g transform="translate(50 50)">
<g>
<animateTransform repeatCount="indefinite" dur="0.3048780487804878s" keyTimes="0;1" values="0;45" type="rotate" attributeName="transform"></animateTransform><path fill="#00a98f" d="M29.491524206117255 -5.5 L43.491524206117255 -5.5 L43.491524206117255 5.5 L29.491524206117255 5.5 A30 30 0 0 1 24.742744050198738 16.964569457146712 L24.742744050198738 16.964569457146712 L34.642238986810405 26.864064393758376 L26.864064393758383 34.6422389868104 L16.964569457146716 24.742744050198734 A30 30 0 0 1 5.5 29.491524206117255 L5.5 29.491524206117255 L5.500000000000001 43.491524206117255 L-5.4999999999999964 43.491524206117255 L-5.499999999999997 29.491524206117255 A30 30 0 0 1 -16.964569457146705 24.742744050198738 L-16.964569457146705 24.742744050198738 L-26.86406439375837 34.642238986810405 L-34.642238986810405 26.864064393758376 L-24.742744050198738 16.964569457146712 A30 30 0 0 1 -29.491524206117255 5.500000000000009 L-29.491524206117255 5.500000000000009 L-43.491524206117255 5.500000000000011 L-43.491524206117255 -5.5 L-29.491524206117255 -5.500000000000002 A30 30 0 0 1 -24.742744050198738 -16.964569457146705 L-24.742744050198738 -16.964569457146705 L-34.642238986810405 -26.86406439375837 L-26.864064393758376 -34.642238986810405 L-16.964569457146712 -24.742744050198738 A30 30 0 0 1 -5.500000000000011 -29.491524206117255 L-5.500000000000011 -29.491524206117255 L-5.500000000000013 -43.491524206117255 L5.499999999999997 -43.491524206117255 L5.5 -29.491524206117255 A30 30 0 0 1 16.964569457146702 -24.74274405019874 L16.964569457146702 -24.74274405019874 L26.864064393758365 -34.64223898681041 L34.6422389868104 -26.864064393758383 L24.742744050198738 -16.964569457146716 A30 30 0 0 1 29.491524206117255 -5.500000000000013 M0 -20A20 20 0 1 0 0 20 A20 20 0 1 0 0 -20"></path></g></g><g></g></g><!-- [ldio] generated by https://loading.io --></svg>